<?xml version="1.0" standalone="no"?><!DOCTYPE svg PUBLIC "-//W3C//DTD SVG 1.1//EN" "http://www.w3.org/Graphics/SVG/1.1/DTD/svg11.dtd"><svg t="1703379213404" class="icon" viewBox="0 0 1024 1024" version="1.1" xmlns="http://www.w3.org/2000/svg" p-id="11866" xmlns:xlink="http://www.w3.org/1999/xlink" width="200" height="200"><path d="M847.644444 477.866667h79.644445V284.444444l-142.222222-82.488888v105.244444l62.577777 39.822222v130.844445z m-682.666666-119.466667V341.333333l51.2-28.444444V207.644444L91.022222 278.755556v199.111111H170.666667l-5.688889-119.466667z m210.488889 475.022222v93.866667l130.844444 54.044444 130.844445-54.044444v-93.866667L506.311111 881.777778l-130.844444-48.355556z m125.155555-790.755555c-113.777778 0-210.488889 93.866667-210.488889 204.8 0 110.933333 96.711111 204.8 210.488889 204.8S711.111111 358.4 711.111111 247.466667c0-110.933333-96.711111-204.8-210.488889-204.8zM187.733333 512C85.333333 512 0 594.488889 0 694.044444c0 99.555556 85.333333 182.044444 187.733333 182.044445s187.733333-82.488889 187.733334-182.044445c-5.688889-99.555556-85.333333-182.044444-187.733334-182.044444z m648.533334 0c-102.4 0-187.733333 82.488889-187.733334 182.044444 0 99.555556 85.333333 182.044444 187.733334 182.044445s187.733333-82.488889 187.733333-182.044445c0-99.555556-85.333333-182.044444-187.733333-182.044444z" fill="#aae814" p-id="11867"></path></svg>